<svg xmlns="http://www.w3.org/2000/svg" viewBox="0 0 9216 2400"><defs><clipPath id="A"><path d="M0 1800h6912V0H0z"/></clipPath></defs><g clip-path="url(#A)" transform="matrix(1.333333 0 0 -1.333333 0 2400)"><path d="M4106.5 800.128h-360.7l72.4 183.564c39.575 100.34 83.557 195.388 109.206 260.612 24.6-63.395 66.23-153.95 104.37-251.958l74.744-192.218m-178.794 700.74L3465.63 347.656h103.815l141.155 359.9h430.75l139.56-359.9h105.356zm-2497.096-2.225l-24.593-53.45-442.967-918.72L527.976 1437.9l-29.646 63.837-128.737-1151.28h97.74l2.13 19.54 89.546 778.568 403.77-850.293 19.906 42.325 385.907 804.3 96.374-794.458h97.708zm761.996-103.936h28.547c122.512 0 238.5-50.86 326.58-143.198 88.435-92.734 137.144-215.042 137.144-344.4 0-127.84-48.677-248.863-137.058-340.775v-.01c-88.113-91.633-204.122-142.108-326.666-142.108-256.575 0-465.318 217.354-465.318 484.507 0 129.282 49.03 251.56 138.064 344.303 80.487 83.825 186.43 134.053 298.707 141.68m26.954 94.296c-305.894 0-564.32-265.025-564.32-578.738 0-322.954 232.424-568.802 543.976-579.86l21.937-.46 21.906.075v.514c137.144 6.075 270.8 64.892 369.663 163.36 109.367 108.95 169.596 256.82 169.596 416.373 0 313.713-257.7 578.738-562.758 578.738m1273.6-14.41l-5.038-14.9-290.064-825.836-299.444 840.725H2794.37l404.234-1141.1 395.398 1141.1zm1676.617-564.33c0-322.965-238.2-470.066-459.5-470.066h-126v941.705h126c270.544 0 459.5-193.95 459.5-471.64m-59.662 408.02c-100.093 103.718-233.536 156.3-396.65 156.3H4490.06V347.518h223.396c156.503 0 286.48 49.778 386.53 147.978h2.14l9.734 10.043c100.713 104.32 158.493 251.27 158.493 403.185 0 161.2-55.405 302.814-160.247 409.56m858.65-894.066c-256.554 0-465.275 217.354-465.275 484.506 0 129.293 49.03 251.57 138.064 344.304 80.52 83.878 186.537 134.106 298.888 141.68h28.323c122.533 0 238.52-50.86 326.6-143.198 88.434-92.745 137.123-215.053 137.123-344.4 0-127.83-48.667-248.853-137.037-340.785v.01c-88.114-91.642-204.144-142.117-326.677-142.117m-1.583 1064.785c-305.927 0-564.362-265.025-564.362-578.738 0-322.986 232.444-568.823 543.997-579.86l21.948-.46 21.905.075v.513c137.144 6.065 270.823 64.893 369.675 163.36 109.356 108.95 169.595 256.82 169.595 416.373 0 313.713-257.7 578.738-562.758 578.738"/></g></svg>